<svg xmlns="http://www.w3.org/2000/svg" height="48" viewBox="0 -960 960 960" width="48"><path d="M270.363-243.001q-12.225 0-20.794-8.381-8.568-8.382-8.568-20.311v-418.614q0-12.354 8.582-21.023t20.807-8.669q12.225 0 20.61 8.669 8.384 8.669 8.384 21.023v418.614q0 11.929-8.398 20.311-8.398 8.381-20.623 8.381Zm267.252-235.768 171.077 171.077q7.692 8.981 7.577 20.452-.116 11.47-8.693 20.547-8.576 9.077-20.807 9.077-12.23 0-20.307-9.077L479.616-453.539q-5.615-4.615-8.308-11.03-2.692-6.415-2.692-14.252 0-6.948 2.692-13.256 2.693-6.308 8.308-10.923l187.461-187.461q7.692-8.692 20.115-8.885 12.423-.192 21 8.885 8.577 8.692 8.577 20.471 0 11.778-8.077 21.144L537.615-478.769Z"/></svg>