<svg xmlns="http://www.w3.org/2000/svg" height="48" viewBox="0 -960 960 960" width="48"><path d="M423.385-481 252.308-652.077q-8.692-8.692-8.384-20.115.307-11.423 9.384-20.5 8.077-9.077 20.308-9.077 12.23 0 21.307 9.077l187.534 187.534q4.542 4.543 7.735 10.953 3.192 6.41 3.192 13.308 0 7.897-3.192 14.205-3.193 6.307-7.723 10.85L294.307-267.308q-9.153 8.692-21.038 8.384-11.884-.307-19.961-9.384-9.077-9.077-9.077-20.808 0-11.73 9.077-20.807L423.385-481Zm267.943-237.999q11.902 0 20.287 8.399 8.384 8.399 8.384 20.293v418.614q0 12.895-8.404 21.293-8.405 8.399-20.308 8.399-12.902 0-21.287-8.399-8.384-8.398-8.384-21.293v-418.614q0-11.894 8.404-20.293 8.405-8.399 21.308-8.399Z"/></svg>